# Blender 4.2.3 LTS
# www.blender.org
mtllib target.mtl
o defaultMaterial
v -0.002185 -0.000004 0.585126
v -0.002185 -0.000004 -0.585126
v 0.002185 -1.365133 -0.585126
v 0.002185 -1.365133 0.585126
v 0.011466 0.000040 0.585126
v 0.015837 -1.365089 0.585126
v 0.015837 -1.365089 -0.585126
v 0.011466 0.000040 -0.585126
v -0.002185 -0.000004 0.585126
v 0.002185 -1.365133 0.585126
v 0.015837 -1.365089 0.585126
v 0.011466 0.000040 0.585126
v -0.002185 -0.000004 -0.585126
v -0.002185 -0.000004 0.585126
v 0.011466 0.000040 0.585126
v 0.011466 0.000040 -0.585126
v 0.002185 -1.365133 -0.585126
v -0.002185 -0.000004 -0.585126
v 0.011466 0.000040 -0.585126
v 0.015837 -1.365089 -0.585126
v 0.002185 -1.365133 0.585126
v 0.002185 -1.365133 -0.585126
v 0.015837 -1.365089 -0.585126
v 0.015837 -1.365089 0.585126
vn -1.0000 -0.0032 -0.0000
vn 1.0000 0.0032 -0.0000
vn -0.0000 -0.0000 1.0000
vn -0.0032 1.0000 -0.0000
vn -0.0000 -0.0000 -1.0000
vn 0.0032 -1.0000 -0.0000
vt 0.490900 0.999872
vt 0.490900 0.427370
vt 0.000128 0.427370
vt 0.000128 0.999872
vt 0.491156 0.999872
vt 0.981928 0.999872
vt 0.981928 0.427370
vt 0.491156 0.427370
vt 0.987909 0.427370
vt 0.982184 0.427370
vt 0.982185 0.999872
vt 0.987910 0.999872
vt 0.999872 0.018072
vt 0.994147 0.018072
vt 0.994147 0.508844
vt 0.999872 0.508844
vt 0.988166 0.999872
vt 0.993891 0.999872
vt 0.993891 0.427370
vt 0.988166 0.427370
vt 0.994147 0.999872
vt 0.999872 0.999872
vt 0.999872 0.509100
vt 0.994147 0.509100
s 0
usemtl Target
f 4/1/1 1/2/1 2/3/1
f 2/3/1 3/4/1 4/1/1
f 8/5/2 5/6/2 6/7/2
f 6/7/2 7/8/2 8/5/2
f 12/9/3 9/10/3 10/11/3
f 10/11/3 11/12/3 12/9/3
f 16/13/4 13/14/4 14/15/4
f 14/15/4 15/16/4 16/13/4
f 20/17/5 17/18/5 18/19/5
f 18/19/5 19/20/5 20/17/5
f 24/21/6 21/22/6 22/23/6
f 22/23/6 23/24/6 24/21/6
